<svg version="1.1" xmlns="http://www.w3.org/2000/svg" xmlns:xlink="http://www.w3.org/1999/xlink" x="0" y="0" width="24" height="24" viewBox="0, 0, 32, 32">
      <path d="M19,1 L28,10 L28,28 C28,29.65 26.65,31 25,31 L6.985,31 C5.335,31 4,29.65 4,28 L4,4 C4,2.35 5.35,1 7,1 L19,1 z M13.526,15.411 L8.889,15.411 C8.039,15.411 7.343,16.107 7.343,16.957 L7.343,23.139 C7.343,23.989 8.039,24.685 8.889,24.685 L13.526,24.685 C14.376,24.685 15.071,23.989 15.071,23.139 L15.071,21.594 L12.753,21.594 L12.753,22.366 L9.662,22.366 L9.662,17.729 L12.753,17.729 L12.753,18.502 L15.071,18.502 L15.071,16.957 C15.071,16.107 14.376,15.411 13.526,15.411 z M19.247,15.411 L16.928,15.411 L19.633,24.685 L21.952,24.685 L24.657,15.411 L22.338,15.411 L20.793,20.712 L19.247,15.411 z M17.5,3.25 L17.5,11.5 L25.75,11.5 L17.5,3.25 z" fill="currentColor"></path>
    </svg>